<?xml version="1.0" encoding="UTF-8" standalone="no"?>
<!-- Created with Inkscape (http://www.inkscape.org/) -->

<svg
   xmlns:dc="http://purl.org/dc/elements/1.1/"
   xmlns:cc="http://creativecommons.org/ns#"
   xmlns:rdf="http://www.w3.org/1999/02/22-rdf-syntax-ns#"
   xmlns:svg="http://www.w3.org/2000/svg"
   xmlns="http://www.w3.org/2000/svg"
   version="1.1"
   width="210"
   height="163.92722"
   id="svg3792">
  <title
     id="title4725">Internet Party NZ logo</title>
  <defs
     id="defs3794" />
  <metadata
     id="metadata3797">
    <rdf:RDF>
      <cc:Work
         rdf:about="">
        <dc:format>image/svg+xml</dc:format>
        <dc:type
           rdf:resource="http://purl.org/dc/dcmitype/StillImage" />
        <dc:title>Internet Party NZ logo</dc:title>
        <dc:creator>
          <cc:Agent>
            <dc:title>The Internet Party </dc:title>
          </cc:Agent>
        </dc:creator>
        <dc:date>2014</dc:date>
      </cc:Work>
    </rdf:RDF>
  </metadata>
  <g
     transform="translate(5,-893.43528)"
     id="layer1"
     style="display:inline">
    <path
       d="m 198.6761,898.43528 -197.3521956,0 C 0.592868,898.43528 0,899.02815 0,899.75918 l 0,61.47489 0,43.03073 0,12.8422 0,35.2555 31.389346,-32.5525 132.558754,0 c 19.91132,0 36.0519,-16.1407 36.0519,-36.05439 l 0,-34.29349 0,-12.27187 0,-37.43107 c 0,-0.73103 -0.59287,-1.3239 -1.3239,-1.3239"
       id="SpeechBubble"
       style="fill:#642c90;fill-opacity:1;fill-rule:nonzero;stroke:none" />
    <path
       d="m 11.36749,930.96765 0,30.89948 9.860199,0 0,-30.89948 -9.860199,0 z m 41.136498,3.70543 0,4.58468 -2.63776,0 0,5.71514 2.63776,0 0,9.29497 c 0,5.65736 2.979413,8.10169 8.290103,8.10169 1.856481,0 3.484356,-0.32397 4.521875,-0.62804 l 0,-6.40599 c -0.733549,0.25785 -1.359075,0.31402 -2.13533,0.31402 -1.381684,0 -2.198133,-0.64301 -2.198133,-2.19813 l 0,-8.47852 4.333463,0 0,-5.71514 -4.333463,0 0,-4.58468 -8.478515,0 z m 111.351162,0 0,4.58468 -2.63776,0 0,5.71514 2.63776,0 0,9.29497 c 0,5.65736 3.04222,8.10169 8.35291,8.10169 1.85648,0 3.42155,-0.32397 4.45907,-0.62804 l 0,-6.40599 c -0.73355,0.25785 -1.29627,0.31402 -2.07253,0.31402 -1.38168,0 -2.19813,-0.64301 -2.19813,-2.19813 l 0,-8.47852 4.27066,0 0,-5.71514 -4.27066,0 0,-4.58468 -8.54132,0 z m -85.036364,3.95664 c -6.90842,0 -12.497959,4.52931 -12.497959,11.86992 l 0,0.31402 c 0,7.46853 5.288081,11.6187 12.497959,11.6187 7.169683,0 11.116275,-3.04483 11.807117,-8.2273 l -7.976085,0 c -0.258751,1.29607 -1.143029,2.44935 -3.517013,2.44935 -2.419203,0 -4.054614,-1.48729 -4.270659,-4.20785 l 15.700953,0 0,-2.07253 c 0,-8.11928 -5.396104,-11.74431 -11.744313,-11.74431 z m 70.151864,0 c -6.90842,0 -12.49796,4.52931 -12.49796,11.86992 l 0,0.31402 c 0,7.46853 5.28808,11.6187 12.49796,11.6187 7.16968,0 11.11627,-3.04483 11.80711,-8.2273 l -7.97608,0 c -0.25875,1.29607 -1.14303,2.44935 -3.51702,2.44935 -2.4192,0 -4.05461,-1.48729 -4.27065,-4.20785 l 15.70095,0 0,-2.07253 c 0,-8.11928 -5.39611,-11.74431 -11.74431,-11.74431 z m -108.273779,0.0628 c -3.798375,0 -6.222602,1.83387 -7.473654,4.20786 l 0,-3.64262 -8.541318,0 0,22.60937 8.541318,0 0,-12.49796 c 0,-2.67791 1.210858,-3.95664 3.328602,-3.95664 2.027308,0 2.888976,1.16558 2.888976,3.45421 l 0,13.00039 8.478515,0 0,-14.88451 c 0,-5.61214 -2.946755,-8.2901 -7.222439,-8.2901 z m 86.166829,0 c -3.79837,0 -6.2226,1.83387 -7.47365,4.20786 l 0,-3.64262 -8.54132,0 0,22.60937 8.54132,0 0,-12.49796 c 0,-2.67791 1.21086,-3.95664 3.3286,-3.95664 2.02731,0 2.88898,1.16558 2.88898,3.45421 l 0,13.00039 8.47851,0 0,-14.88451 c 0,-5.61214 -2.94675,-8.2901 -7.22244,-8.2901 z m -18.71553,0.25122 c -3.3688,-0.0452 -5.79805,1.39927 -7.22244,4.89869 l 0,-4.58467 -8.54132,0 0,22.60937 8.54132,0 0,-10.42543 c 0,-3.23827 2.51466,-4.78063 7.22244,-4.52188 l 0,-7.97608 z m -29.329384,5.14991 c 2.288571,0 3.4316,1.47715 3.517013,3.89384 l -7.41085,0 c 0.346677,-2.54733 1.823823,-3.89384 3.893837,-3.89384 z m 70.151864,0 c 2.28857,0 3.42908,1.47715 3.51701,3.89384 l -7.41085,0 c 0.34668,-2.54733 1.82131,-3.89384 3.89384,-3.89384 z m -137.728767,21.79292 0,30.83668 9.734591,0 0,-10.04862 3.014583,0 c 7.988645,0 12.246743,-3.61508 12.246743,-10.04861 l 0,-0.18841 c 0,-6.60696 -3.790838,-10.55104 -12.68637,-10.55104 l -12.309547,0 z m 70.277467,3.64262 0,4.64749 -2.63776,0 0,5.71514 2.63776,0 0,9.29497 c 0,5.65737 3.042217,8.10169 8.352907,8.10169 1.856481,0 3.421552,-0.38677 4.459071,-0.69084 l 0,-6.34319 c -0.733549,0.25765 -1.296271,0.31402 -2.072526,0.31402 -1.384196,0 -2.198134,-0.64301 -2.198134,-2.19813 l 0,-8.47852 4.27066,0 0,-5.71514 -4.27066,0 0,-4.64749 -8.541318,0 z m -60.542876,3.64263 2.072526,0 c 2.547322,0 3.893836,0.95451 3.893836,3.3286 l 0,0.18841 c 0,2.28847 -1.366611,3.45421 -3.95664,3.45421 l -2.009722,0 0,-6.97122 z m 27.194051,0.37682 c -6.476329,0 -10.769598,2.76337 -11.116275,8.2901 l 7.91328,0 c 0.12812,-1.16544 0.756158,-2.38654 2.700564,-2.38654 2.288571,0 2.637761,1.36661 2.637761,3.26579 l 0,0.37683 -1.946919,0 c -7.812794,0 -12.121136,2.10016 -12.121136,7.41085 0,4.83579 3.604939,6.78281 7.662066,6.78281 3.670254,0 5.644806,-1.58507 6.5944,-3.14019 l 0,2.57496 8.2273,0 0,-14.57049 c 0,-5.95883 -3.986787,-8.60412 -10.551041,-8.60412 z m 28.952558,0.31402 c -3.368797,-0.0452 -5.860852,1.40178 -7.285242,4.89869 l 0,-4.58467 -8.478515,0 0,22.54657 8.478515,0 0,-10.36263 c 0,-3.23827 2.577468,-4.78053 7.285242,-4.52188 l 0,-7.97608 z m 18.401517,0.31402 8.98095,20.34843 -3.64263,9.73459 8.1017,0 11.99552,-30.08302 -7.97608,0 -4.01944,11.24188 -4.27066,-11.24188 -9.16936,0 z m 27.31966,13.00039 c -2.83873,0 -5.08711,2.27088 -5.08711,5.0871 0,2.86145 2.27099,5.02431 5.08711,5.02431 2.83873,0 5.08711,-2.22567 5.08711,-5.08711 0,-2.81602 -2.20316,-5.0243 -5.08711,-5.0243 z m -74.359716,0.50243 1.821311,0 0,1.19327 c 0,1.68314 -1.386709,2.76337 -3.328603,2.76337 -1.555022,0 -2.386544,-0.74109 -2.386544,-1.82131 0,-1.59773 1.045055,-2.13533 3.893836,-2.13533 z"
       id="InternetParty."
       style="fill:#ffffff;fill-opacity:1;fill-rule:nonzero;stroke:none" />
  </g>
</svg>
